<mxfile host="app.diagrams.net" modified="2023-06-05T23:53:56.106Z" agent="Mozilla/5.0 (Windows NT 10.0; Win64; x64) AppleWebKit/537.36 (KHTML, like Gecko) Chrome/114.0.0.0 Safari/537.36" etag="mf6joHT_y7VVg7T_2SDB" version="21.3.5" type="github">
  <diagram name="Página-1" id="CQQQ1_xxynBM_lZkvn02">
    <mxGraphModel dx="2261" dy="792" grid="1" gridSize="10" guides="1" tooltips="1" connect="1" arrows="1" fold="1" page="1" pageScale="1" pageWidth="827" pageHeight="1169" math="0" shadow="0">
      <root>
        <mxCell id="0" />
        <mxCell id="1" parent="0" />
        <mxCell id="xhrllQ4y0iZZigfFHR5F-14" value="Saídas&lt;br&gt;Protegidas por mutex&lt;br&gt;OUT_1&lt;br&gt;OUT_2&lt;br&gt;OUT_3&lt;br style=&quot;border-color: var(--border-color);&quot;&gt;OUT_4" style="rounded=0;whiteSpace=wrap;html=1;" vertex="1" parent="1">
          <mxGeometry x="1270" y="330" width="139" height="140" as="geometry" />
        </mxCell>
        <mxCell id="xhrllQ4y0iZZigfFHR5F-16" value="Task IHM&lt;br&gt;Leitura dos BTN&lt;br&gt;Envia o sinal pro Display" style="ellipse;whiteSpace=wrap;html=1;aspect=fixed;" vertex="1" parent="1">
          <mxGeometry x="80" y="90" width="160" height="160" as="geometry" />
        </mxCell>
        <mxCell id="xhrllQ4y0iZZigfFHR5F-19" value="Task Lógica 1&lt;br&gt;Pega o valor da entradas selecionada&lt;br&gt;Faz uma ou duas lógicas&lt;br&gt;Joga o sinal pra saída selecionada" style="ellipse;whiteSpace=wrap;html=1;aspect=fixed;" vertex="1" parent="1">
          <mxGeometry x="329" y="80" width="170" height="170" as="geometry" />
        </mxCell>
        <mxCell id="xhrllQ4y0iZZigfFHR5F-20" value="Task Lógica 2&lt;br&gt;Pega o valor da entradas selecionada&lt;br&gt;Faz uma ou duas lógicas&lt;br&gt;Joga o sinal pra saída selecionada" style="ellipse;whiteSpace=wrap;html=1;aspect=fixed;" vertex="1" parent="1">
          <mxGeometry x="600" y="90" width="170" height="170" as="geometry" />
        </mxCell>
        <mxCell id="xhrllQ4y0iZZigfFHR5F-21" value="Task Lógica 3&lt;br&gt;Pega o valor da entradas selecionada&lt;br&gt;Faz uma ou duas lógicas&lt;br&gt;Joga o sinal pra saída selecionada" style="ellipse;whiteSpace=wrap;html=1;aspect=fixed;" vertex="1" parent="1">
          <mxGeometry x="850" y="85" width="170" height="170" as="geometry" />
        </mxCell>
        <mxCell id="xhrllQ4y0iZZigfFHR5F-22" value="Task Lógica 4&lt;br&gt;Pega o valor da entradas selecionada&lt;br&gt;Faz uma ou duas lógicas&lt;br&gt;Joga o sinal pra saída selecionada" style="ellipse;whiteSpace=wrap;html=1;aspect=fixed;" vertex="1" parent="1">
          <mxGeometry x="1110" y="85" width="170" height="170" as="geometry" />
        </mxCell>
        <mxCell id="xhrllQ4y0iZZigfFHR5F-23" value="Entradas&lt;br&gt;IN_1&lt;br&gt;IN_2&lt;br&gt;IN_3&lt;br&gt;IN_4&lt;br&gt;A_0" style="rounded=0;whiteSpace=wrap;html=1;" vertex="1" parent="1">
          <mxGeometry x="-190" y="250" width="139" height="140" as="geometry" />
        </mxCell>
        <mxCell id="xhrllQ4y0iZZigfFHR5F-24" value="Configurações&lt;br&gt;Protegida por mutex&lt;br&gt;LOGICA_TASK_1&lt;br&gt;LOGICA_TASK_2&lt;br&gt;LOGICA_TASK_3&lt;br&gt;LOGICA_TASK_4" style="rounded=0;whiteSpace=wrap;html=1;" vertex="1" parent="1">
          <mxGeometry x="-190" y="430" width="139" height="140" as="geometry" />
        </mxCell>
      </root>
    </mxGraphModel>
  </diagram>
</mxfile>
